<?xml version="1.0" standalone="no"?>
<!DOCTYPE svg PUBLIC "-//W3C//DTD SVG 20010904//EN"
 "http://www.w3.org/TR/2001/REC-SVG-20010904/DTD/svg10.dtd">
<svg version="1.0" xmlns="http://www.w3.org/2000/svg"
 width="256.000000pt" height="256.000000pt" viewBox="0 0 256.000000 256.000000"
 preserveAspectRatio="xMidYMid meet">

<g transform="translate(0.000000,256.000000) scale(0.100000,-0.100000)"
fill="#000000" stroke="none">
<path d="M1200 2461 c-50 -16 -96 -44 -151 -91 -163 -141 -364 -252 -529 -294
-121 -30 -125 -32 -147 -64 -16 -25 -18 -54 -18 -332 0 -258 3 -318 18 -390
57 -264 216 -571 425 -821 170 -202 315 -296 484 -314 198 -21 413 141 642
484 134 200 235 423 266 587 23 125 29 255 21 490 -7 197 -12 248 -26 278 -22
46 -35 53 -152 82 -163 40 -343 138 -513 279 -101 84 -150 107 -230 111 -36 2
-76 0 -90 -5z m185 -30 c22 -10 78 -49 125 -88 105 -86 221 -163 315 -207 77
-37 224 -86 256 -86 31 0 77 -31 88 -59 6 -15 12 -149 13 -316 2 -269 1 -298
-20 -393 -51 -234 -164 -466 -343 -704 -133 -179 -308 -341 -344 -320 -12 6
-36 1 -78 -17 -99 -40 -163 -36 -273 18 -78 39 -104 59 -209 165 -66 67 -145
158 -175 202 -33 49 -68 89 -89 100 -26 14 -49 46 -96 130 -100 182 -158 351
-184 538 -12 84 -13 378 -3 519 7 79 10 91 34 112 14 12 47 26 71 29 157 24
389 141 547 276 148 126 246 153 365 101z"/>
<path d="M1232 2388 c9 -7 4 -8 -15 -3 -21 4 -27 3 -21 -6 5 -8 2 -10 -8 -7
-18 7 -43 -7 -43 -23 0 -7 -6 -14 -14 -17 -9 -3 -11 0 -6 9 5 8 -4 3 -18 -10
-14 -13 -25 -29 -24 -35 1 -6 -5 -11 -14 -11 -23 0 -50 -25 -42 -38 4 -6 0 -8
-10 -4 -17 6 -41 -15 -29 -27 4 -5 -2 -6 -13 -4 -12 2 -20 -3 -20 -11 0 -8 -6
-16 -14 -19 -9 -3 -11 0 -6 8 4 7 -4 4 -19 -5 -14 -9 -23 -22 -19 -28 4 -6 0
-8 -11 -4 -10 4 -19 1 -22 -8 -4 -8 -11 -12 -17 -8 -6 4 -7 1 -3 -6 5 -8 3
-11 -6 -9 -21 5 -118 -44 -111 -55 4 -6 0 -8 -11 -4 -11 5 -15 3 -10 -5 5 -8
2 -9 -9 -5 -22 8 -49 -2 -41 -15 4 -6 -2 -8 -17 -3 -19 5 -21 4 -9 -5 12 -9 9
-10 -15 -6 -23 5 -27 4 -15 -5 12 -8 9 -9 -13 -4 -21 4 -27 3 -21 -6 5 -9 -1
-10 -22 -5 -22 5 -26 4 -14 -4 11 -9 4 -10 -30 -6 -33 5 -40 3 -25 -4 17 -8
16 -9 -10 -7 -29 2 -29 2 -28 -48 l1 -50 -8 40 c-5 23 -7 -72 -7 -232 1 -150
6 -269 11 -266 4 3 7 -13 4 -36 -2 -22 0 -41 4 -41 5 0 8 -9 8 -21 0 -11 11
-65 25 -120 94 -371 459 -866 707 -961 128 -48 265 7 433 175 176 177 365 477
444 707 45 130 62 229 67 395 7 219 -6 445 -26 456 -8 4 -45 14 -82 23 -37 8
-102 29 -145 46 -90 36 -293 149 -300 167 -3 7 -11 13 -19 13 -7 0 -18 9 -24
20 -6 11 -14 19 -18 17 -4 -1 -18 6 -32 16 -13 9 -21 17 -16 17 5 0 1 9 -9 20
-9 10 -20 19 -24 18 -20 -2 -31 3 -26 12 4 6 3 10 -2 9 -20 -3 -34 2 -28 11 4
6 -1 7 -11 3 -12 -5 -15 -3 -9 6 6 10 2 11 -15 6 -14 -4 -20 -3 -17 3 4 5 -16
9 -49 9 -37 0 -51 -3 -42 -9z m114 -27 c23 -11 75 -47 115 -81 186 -156 385
-262 585 -310 28 -7 43 -17 47 -29 4 -16 1 -18 -17 -12 -11 4 -33 7 -48 6 -16
-1 -28 2 -28 7 0 16 -17 8 -29 -14 l-12 -23 5 23 c3 17 1 22 -9 18 -8 -3 -16
0 -19 7 -3 7 -5 6 -5 -3 -1 -9 3 -20 8 -25 6 -6 4 -15 -5 -23 -15 -14 -17 -11
-27 33 -3 11 -6 -5 -7 -35 -2 -30 -5 -45 -7 -32 -3 14 -12 22 -24 22 -10 0
-18 5 -17 11 2 6 -2 13 -9 16 -7 3 -10 -4 -6 -19 3 -17 2 -20 -5 -9 -8 11 -11
8 -15 -15 -3 -20 -4 -14 -6 19 0 26 -6 47 -12 47 -5 0 -8 -4 -5 -9 10 -15 -6
-71 -19 -71 -8 0 -15 5 -17 12 -3 7 -11 -2 -19 -20 -17 -40 -24 -40 -44 -2
-12 22 -13 35 -5 49 15 29 12 51 -7 51 -13 0 -14 3 -5 12 7 7 12 21 12 31 0
24 -25 19 -127 -24 l-71 -31 -71 16 c-38 9 -104 16 -145 16 -68 0 -74 2 -69
19 5 21 -12 37 -22 21 -12 -19 -22 -10 -17 15 2 14 1 25 -3 25 -11 0 -97 -61
-140 -100 -22 -20 -66 -52 -98 -70 -76 -45 -169 -137 -210 -209 -36 -62 -77
-156 -77 -177 0 -8 -3 -14 -7 -14 -5 0 -7 -30 -5 -67 2 -63 1 -66 -13 -49 -20
26 -20 7 1 -22 12 -17 12 -22 2 -23 -10 0 -10 -2 0 -6 6 -2 12 -9 12 -15 0 -6
-7 -8 -15 -4 -8 3 -15 1 -15 -4 0 -6 4 -10 8 -10 4 0 8 -11 8 -25 0 -14 -4
-25 -10 -25 -5 0 -20 -10 -33 -21 -20 -19 -25 -20 -40 -8 -9 8 -14 9 -10 3 4
-7 1 -14 -6 -17 -37 -14 -92 356 -56 378 7 5 4 15 -6 32 -10 14 -12 22 -5 18
8 -5 10 2 5 26 -7 35 -6 309 1 321 2 3 28 11 57 17 97 21 181 52 166 63 -11 8
-10 8 4 4 10 -3 34 1 53 9 35 14 47 28 17 19 -10 -3 2 6 27 19 25 14 48 23 52
21 11 -7 49 16 43 25 -2 5 3 8 13 7 9 0 16 5 15 12 -3 11 10 17 31 13 12 -2
37 20 31 29 -3 4 3 7 12 6 10 0 18 6 18 14 0 8 9 15 20 15 11 0 20 5 20 12 0
7 6 18 14 25 10 10 12 10 7 1 -11 -20 9 -15 29 7 10 11 15 20 10 20 -4 0 -2 7
5 15 7 8 16 12 21 9 12 -7 60 26 53 37 -3 5 1 6 9 4 7 -3 24 -1 38 4 37 15 80
12 125 -8z m105 -48 c13 -16 12 -17 -3 -4 -10 7 -18 15 -18 17 0 8 8 3 21 -13z
m-311 -322 c-11 -22 -24 -42 -30 -46 -5 -3 -10 -10 -10 -14 0 -5 19 10 42 33
39 38 43 39 46 19 4 -26 -21 -78 -56 -115 -14 -16 -22 -28 -18 -28 12 0 70 61
72 77 7 44 11 46 97 40 87 -6 177 -26 177 -39 0 -4 -3 -8 -7 -8 -5 0 -31 -18
-60 -39 -32 -25 -53 -35 -56 -28 -4 14 -79 -35 -106 -70 -18 -22 -18 -22 -13
22 3 30 1 45 -7 45 -8 0 -9 13 -5 40 5 28 3 40 -5 40 -7 0 -9 -4 -6 -10 10
-16 -17 -88 -41 -111 -13 -13 -24 -27 -24 -33 0 -5 18 8 40 29 36 36 40 37 40
17 0 -32 -24 -84 -48 -106 -12 -10 -19 -22 -17 -26 3 -4 -6 -29 -19 -55 -18
-35 -25 -42 -29 -28 -3 13 -6 9 -12 -14 -4 -19 -14 -33 -22 -33 -11 0 -14 6
-9 23 4 12 9 35 13 51 6 27 5 29 -20 22 -26 -6 -27 -5 -27 41 l0 46 -25 -23
-25 -23 0 34 c0 19 -5 41 -10 49 -9 13 -11 13 -19 0 -18 -29 -43 -55 -38 -40
2 8 7 26 11 40 l6 25 -13 -26 c-6 -14 -17 -24 -23 -22 -15 5 -50 -71 -71 -150
-17 -68 -13 -168 9 -215 12 -25 19 -27 89 -32 43 -3 83 -11 93 -19 27 -23 19
-46 -25 -65 -54 -24 -151 -106 -179 -151 -18 -29 -21 -44 -16 -78 12 -72 46
-90 64 -34 10 32 10 32 11 5 1 -36 28 -37 42 -1 12 31 30 47 84 73 46 23 95
26 95 7 0 -7 -13 -34 -30 -60 -33 -52 -37 -67 -17 -67 6 0 -5 -16 -25 -35 -31
-29 -45 -35 -81 -35 -24 0 -48 -5 -53 -10 -13 -13 -80 54 -134 135 -63 93 -93
198 -93 325 -1 121 15 186 71 295 39 74 150 194 212 229 l34 19 -23 -37 c-13
-20 -21 -40 -17 -43 3 -4 6 -2 6 4 0 25 92 133 150 176 34 26 66 47 71 47 5 0
0 -18 -11 -39z m520 -20 c-17 -32 -122 -121 -186 -157 -69 -39 -74 -40 -74
-19 0 19 -4 19 -41 -1 -49 -25 -46 -7 7 42 30 29 91 67 159 100 120 58 153 67
135 35z m20 -51 c0 -5 -24 -33 -54 -62 -66 -66 -82 -78 -90 -71 -3 4 -6 1 -6
-5 0 -19 -18 -14 -23 6 -4 13 -5 12 -6 -5 -1 -14 -12 -28 -31 -38 -29 -15 -30
-15 -30 7 0 17 15 32 56 57 31 18 78 53 106 77 46 42 78 56 78 34z m300 -48
c0 -15 -2 -15 -10 -2 -13 20 -13 33 0 25 6 -3 10 -14 10 -23z m-105 -2 c-3 -5
-14 -10 -23 -10 -15 0 -15 2 -2 10 20 13 33 13 25 0z m42 -12 c-3 -8 -6 -5 -6
6 -1 11 2 17 5 13 3 -3 4 -12 1 -19z m-237 2 c0 -5 -5 -10 -11 -10 -5 0 -7 5
-4 10 3 6 8 10 11 10 2 0 4 -4 4 -10z m-361 -52 c-14 -49 -55 -101 -81 -103
-13 -1 -32 -6 -42 -10 -19 -8 -19 -7 1 21 21 29 118 124 127 124 2 0 0 -14 -5
-32z m344 5 c-4 -11 -8 -13 -11 -5 -2 7 -9 9 -14 6 -7 -4 -8 -2 -4 4 12 19 36
15 29 -5z m-46 -23 c-2 -11 -7 -23 -12 -27 -4 -5 -5 -2 0 6 5 9 3 12 -6 9 -8
-3 -13 -10 -12 -16 4 -19 -37 -36 -51 -22 -7 9 -8 14 0 16 5 3 26 15 45 29 42
29 40 29 36 5z m-252 -49 c-15 -27 -42 -64 -61 -82 l-33 -32 -12 27 c-8 18 -9
30 -3 34 6 4 20 21 32 38 19 27 72 63 95 64 5 0 -4 -22 -18 -49z m350 12 c45
-48 113 -159 120 -198 l6 -30 -108 -39 c-59 -21 -118 -39 -130 -40 -11 0 -19
-4 -16 -8 2 -5 -1 -8 -6 -8 -6 0 -11 5 -11 10 0 6 -7 10 -16 10 -13 0 -14 3
-5 14 6 7 11 27 11 42 -1 56 5 78 29 101 14 15 21 32 18 43 -3 11 5 27 20 42
16 14 22 30 19 42 -4 17 17 56 30 56 2 0 20 -17 39 -37z m-760 -57 l-6 -51 23
28 c13 15 27 27 31 27 11 0 8 -31 -7 -72 -16 -44 -12 -47 21 -16 34 32 40 15
15 -44 -22 -52 -22 -72 0 -50 16 16 28 15 28 -3 0 -8 -6 -15 -12 -15 -9 0 -8
-4 2 -10 8 -5 10 -10 5 -10 -6 0 -11 -9 -12 -21 -1 -14 3 -19 13 -15 16 6 20
-29 4 -39 -5 -3 -10 1 -10 9 0 9 -7 16 -15 16 -8 0 -15 6 -15 13 0 8 -4 7 -10
-3 -8 -13 -10 -12 -10 3 0 10 -4 15 -10 12 -5 -3 -10 -1 -10 4 0 6 -10 11 -22
11 -19 0 -20 -2 -8 -10 12 -7 12 -10 1 -10 -7 0 -11 -6 -8 -13 3 -8 -1 -14 -9
-14 -7 0 -11 3 -9 7 2 4 -2 7 -10 7 -21 0 -18 -16 4 -25 17 -6 18 -9 5 -26 -9
-13 -14 -15 -14 -6 0 11 -3 11 -12 2 -20 -20 -28 -14 -28 23 0 37 -8 43 -28
23 -19 -19 -25 -3 -26 69 -1 48 3 68 13 71 10 3 10 6 2 12 -9 5 -6 25 11 73
25 73 40 86 48 43 5 -28 5 -27 28 18 28 60 46 52 37 -18z m456 10 c-27 -55
-108 -126 -117 -102 -4 11 9 33 36 64 49 54 92 93 98 87 2 -2 -5 -24 -17 -49z
m119 24 c0 -4 -9 -6 -20 -3 -14 4 -20 0 -20 -10 0 -9 -13 -18 -31 -22 -56 -13
-45 13 16 36 40 16 55 15 55 -1z m60 -27 c0 -21 -3 -24 -9 -14 -5 8 -7 20 -4
28 8 21 13 15 13 -14z m22 5 c-7 -7 -12 -8 -12 -2 0 6 3 14 7 17 3 4 9 5 12 2
2 -3 -1 -11 -7 -17z m-381 -63 c-8 -30 -7 -36 4 -31 8 3 17 1 20 -5 11 -16 -5
-49 -24 -49 -9 0 -26 -6 -36 -14 -18 -13 -18 -14 7 -9 14 3 29 0 33 -6 4 -7 1
-10 -7 -9 -7 2 -12 -3 -10 -9 2 -15 -14 -17 -23 -3 -8 13 -35 1 -35 -17 0 -8
-5 -11 -11 -8 -6 4 -8 13 -5 21 3 8 0 13 -7 11 -21 -4 -19 59 3 102 13 26 34
48 58 60 42 22 47 17 33 -34z m303 33 c-7 -25 -22 -38 -42 -38 -18 0 -27 29
-13 43 8 8 11 5 12 -13 1 -23 3 -20 14 18 3 6 12 12 20 12 12 0 15 -6 9 -22z
m17 -11 c-10 -9 -11 -8 -5 6 3 10 9 15 12 12 3 -3 0 -11 -7 -18z m-88 -17 c3
-11 1 -23 -4 -26 -5 -3 -9 -1 -9 5 0 5 -3 16 -6 25 -3 9 -2 16 4 16 5 0 12 -9
15 -20z m-43 -15 c0 -8 -5 -15 -11 -15 -5 0 -8 -4 -5 -9 8 -12 -40 -54 -56
-49 -7 3 -19 -4 -25 -16 l-13 -21 3 21 c3 25 75 104 94 104 7 0 13 -7 13 -15z
m-299 -143 c21 -27 24 -42 9 -42 -5 0 -10 9 -10 21 0 15 -5 19 -15 15 -12 -4
-15 4 -14 42 2 33 3 38 6 17 3 -16 13 -40 24 -53z m288 56 c0 -13 -3 -18 -5
-11 -8 20 -35 3 -29 -18 4 -13 -2 -22 -24 -33 -41 -22 -48 -20 -23 7 12 12 33
34 46 50 30 33 36 34 35 5z m-141 -40 c-3 -7 -13 -15 -23 -16 -15 -4 -16 -2
-4 12 17 19 32 21 27 4z m-8 -33 c8 0 21 4 28 8 8 6 6 -4 -5 -27 -13 -27 -21
-35 -35 -30 -10 3 -18 1 -18 -5 0 -15 -27 -14 -36 1 -5 8 -2 9 9 5 13 -5 17
-1 17 19 0 14 -4 22 -10 19 -5 -3 -10 1 -10 9 0 12 6 14 23 8 12 -4 29 -7 37
-7z m-158 -31 c-3 -17 -7 -22 -12 -13 -9 13 -2 39 10 39 4 0 5 -12 2 -26z
m-111 -21 c13 -16 12 -17 -3 -4 -17 13 -22 21 -14 21 2 0 10 -8 17 -17z m-134
-39 c2 -13 1 -15 -4 -4 -3 8 -11 19 -17 23 -7 6 -6 7 4 4 8 -2 16 -12 17 -23z
m118 16 c3 -6 -1 -7 -9 -4 -18 7 -21 14 -7 14 6 0 13 -4 16 -10z m312 4 c-3
-3 -12 -4 -19 -1 -8 3 -5 6 6 6 11 1 17 -2 13 -5z m-47 -38 c0 -2 -7 -6 -15
-10 -8 -3 -15 -1 -15 4 0 6 7 10 15 10 8 0 15 -2 15 -4z m630 -93 c-14 -97
-50 -195 -101 -275 -32 -49 -34 -50 -40 -27 -7 22 -7 22 -8 -7 -1 -38 -39 -78
-61 -64 -11 7 -11 10 -2 10 7 0 11 4 7 10 -10 17 -35 -1 -35 -26 0 -14 -7 -27
-15 -30 -8 -4 -15 -13 -15 -20 0 -12 -3 -12 -14 -2 -8 7 -10 15 -6 18 4 3 2
11 -6 18 -12 10 -14 10 -14 -3 0 -8 -5 -14 -12 -13 -6 2 -15 -8 -19 -22 -7
-23 -7 -23 -8 7 -1 26 -4 31 -18 26 -11 -4 -14 -3 -9 5 4 7 2 12 -3 12 -6 0
-11 -8 -12 -17 0 -15 -2 -15 -9 2 -8 17 -9 16 -11 -10 -1 -24 -3 -26 -6 -7 -2
12 -9 22 -14 22 -5 0 -9 12 -9 28 l-1 27 -14 -25 c-16 -28 -19 -44 -7 -36 11
7 8 -31 -3 -41 -4 -5 -6 -3 -3 2 3 6 0 16 -8 23 -12 11 -14 10 -14 -3 0 -21
-37 -19 -49 3 -5 9 -6 31 -3 47 l6 30 6 -34 c3 -19 10 -36 17 -38 12 -4 12 21
0 33 -4 4 -7 16 -7 26 0 10 -7 18 -15 18 -17 0 -20 17 -4 22 6 2 13 24 16 50
5 46 6 46 64 68 33 11 59 27 59 34 0 8 7 16 15 20 8 3 15 12 15 20 0 7 11 17
25 20 14 4 25 11 25 16 0 6 16 10 36 10 60 0 123 21 159 54 19 17 48 39 65 48
17 10 33 25 37 35 7 19 25 35 31 28 2 -2 -1 -43 -8 -92z m-537 -10 c-7 -2 -19
-2 -25 0 -7 3 -2 5 12 5 14 0 19 -2 13 -5z m-746 -100 c-3 -10 -5 -4 -5 12 0
17 2 24 5 18 2 -7 2 -21 0 -30z m-32 7 c3 -5 1 -10 -4 -10 -6 0 -11 5 -11 10
0 6 2 10 4 10 3 0 8 -4 11 -10z m-1 -62 c-3 -4 -11 -8 -17 -7 -9 0 -9 2 0 5 7
3 9 13 6 22 -4 14 -3 14 5 2 6 -8 8 -18 6 -22z m611 -211 c-23 -35 -69 -53
-100 -39 -30 14 -31 23 -5 47 19 17 20 17 31 -9 14 -31 39 -34 46 -6 3 11 12
20 19 20 8 0 14 5 14 12 0 6 3 9 6 6 3 -4 -2 -17 -11 -31z m146 -32 c-8 -46
-4 -78 10 -70 5 4 9 -1 9 -9 0 -9 -5 -16 -10 -16 -6 0 -15 -10 -20 -22 -9 -20
-10 -17 -7 15 2 26 -1 37 -11 37 -7 0 -10 5 -6 12 4 7 3 8 -4 4 -7 -4 -12 -2
-12 5 0 7 -3 9 -6 6 -4 -4 -1 -14 7 -23 16 -19 20 -66 5 -57 -5 4 -7 -1 -3
-10 3 -10 2 -17 -3 -17 -6 0 -10 14 -10 31 0 17 4 28 10 24 6 -3 10 -1 10 4 0
6 -4 11 -9 11 -5 0 -13 9 -16 20 -3 11 -17 23 -31 26 -29 7 -30 15 -6 44 17
20 19 21 32 5 11 -13 11 -18 2 -24 -9 -5 -4 -11 13 -19 36 -16 45 -14 15 3
-19 11 -21 14 -7 15 9 0 17 7 17 15 0 11 30 38 37 32 0 -1 -2 -20 -6 -42z
m344 15 c3 -5 1 -10 -4 -10 -6 0 -11 5 -11 10 0 6 2 10 4 10 3 0 8 -4 11 -10z
m-170 -49 c3 -5 1 -12 -5 -16 -5 -3 -10 1 -10 9 0 18 6 21 15 7z m78 -6 c4 -8
3 -16 -1 -19 -4 -3 -9 4 -9 15 -2 23 3 25 10 4z m-213 1 c0 -3 -4 -8 -10 -11
-5 -3 -10 -1 -10 4 0 6 5 11 10 11 6 0 10 -2 10 -4z m89 -28 c0 -27 -2 -29 -8
-13 -5 11 -6 26 -4 33 8 21 13 13 12 -20z m-426 -5 c-3 -7 -6 -13 -8 -13 -2 0
-5 6 -8 13 -3 8 1 14 8 14 7 0 11 -6 8 -14z m187 -28 c0 -5 5 -3 10 5 9 14 12
7 9 -16 0 -4 5 -11 13 -15 7 -5 8 -9 2 -9 -6 0 -19 9 -30 21 l-19 21 -7 -24
c-7 -21 -7 -20 -4 5 2 15 -1 27 -5 27 -5 0 -9 5 -9 10 0 6 8 5 20 -2 11 -7 20
-17 20 -23z m147 -10 c0 -8 -4 -12 -9 -9 -5 3 -6 10 -3 15 9 13 12 11 12 -6z"/>
<path d="M1465 2060 c-16 -7 -17 -9 -3 -9 9 -1 20 4 23 9 7 11 7 11 -20 0z"/>
<path d="M1320 2040 c0 -5 5 -10 10 -10 6 0 10 5 10 10 0 6 -4 10 -10 10 -5 0
-10 -4 -10 -10z"/>
<path d="M1870 1916 c0 -9 5 -16 10 -16 6 0 10 4 10 9 0 6 -4 13 -10 16 -5 3
-10 -1 -10 -9z"/>
<path d="M504 1708 c-4 -6 -3 -8 4 -4 5 3 13 0 15 -6 3 -8 6 -6 6 5 1 19 -14
23 -25 5z"/>
<path d="M600 1409 c0 -5 5 -7 10 -4 6 3 10 8 10 11 0 2 -4 4 -10 4 -5 0 -10
-5 -10 -11z"/>
<path d="M581 1261 c-1 -24 2 -32 9 -25 7 7 7 19 1 35 -9 23 -10 22 -10 -10z"/>
<path d="M556 1235 c-3 -8 -1 -15 4 -15 6 0 10 7 10 15 0 8 -2 15 -4 15 -2 0
-6 -7 -10 -15z"/>
<path d="M990 1480 c0 -5 5 -10 11 -10 5 0 7 5 4 10 -3 6 -8 10 -11 10 -2 0
-4 -4 -4 -10z"/>
<path d="M1634 1012 c1 -24 18 -32 24 -10 3 9 1 9 -6 -1 -8 -12 -11 -10 -15
10 -4 22 -4 22 -3 1z"/>
<path d="M1677 990 c5 -55 9 -67 17 -59 3 3 -1 29 -9 59 l-14 55 6 -55z"/>
<path d="M1554 999 c-7 -11 12 -29 31 -29 6 1 2 5 -8 11 -9 6 -15 14 -12 20 4
5 4 9 1 9 -3 0 -8 -5 -12 -11z"/>
<path d="M1512 941 c-12 -34 -3 -55 16 -35 8 9 9 14 2 14 -7 0 -8 6 0 19 6 12
6 22 1 25 -5 3 -14 -7 -19 -23z"/>
<path d="M1635 960 c3 -5 11 -10 16 -10 6 0 7 5 4 10 -3 6 -11 10 -16 10 -6 0
-7 -4 -4 -10z"/>
<path d="M1551 948 c1 -23 15 -52 21 -42 3 5 2 19 -3 32 -9 24 -19 30 -18 10z"/>
<path d="M1370 911 c0 -6 4 -13 10 -16 6 -3 7 1 4 9 -7 18 -14 21 -14 7z"/>
<path d="M1601 884 c0 -11 3 -14 6 -6 3 7 2 16 -1 19 -3 4 -6 -2 -5 -13z"/>
</g>
</svg>
